<?xml version="1.0" encoding="UTF-8" standalone="no"?>
<!-- Created with Inkscape (http://www.inkscape.org/) -->

<svg
   width="161.41269mm"
   height="20.079561mm"
   viewBox="0 0 161.41269 20.079561"
   version="1.1"
   id="svg5"
   xml:space="preserve"
   inkscape:version="1.2.1 (9c6d41e410, 2022-07-14)"
   sodipodi:docname="lightAdoptionsLogo.svg"
   xmlns:inkscape="http://www.inkscape.org/namespaces/inkscape"
   xmlns:sodipodi="http://sodipodi.sourceforge.net/DTD/sodipodi-0.dtd"
   xmlns="http://www.w3.org/2000/svg"
   xmlns:svg="http://www.w3.org/2000/svg"><sodipodi:namedview
     id="namedview7"
     pagecolor="#ffffff"
     bordercolor="#000000"
     borderopacity="0.25"
     inkscape:showpageshadow="2"
     inkscape:pageopacity="0.0"
     inkscape:pagecheckerboard="0"
     inkscape:deskcolor="#d1d1d1"
     inkscape:document-units="mm"
     showgrid="false"
     inkscape:zoom="0.74564394"
     inkscape:cx="307.11709"
     inkscape:cy="59.009398"
     inkscape:window-width="1920"
     inkscape:window-height="1017"
     inkscape:window-x="1912"
     inkscape:window-y="188"
     inkscape:window-maximized="1"
     inkscape:current-layer="layer1" /><defs
     id="defs2" /><g
     inkscape:label="Capa 1"
     inkscape:groupmode="layer"
     id="layer1"
     transform="translate(-23.847217,-133.10072)"><path
       style="fill:#000000;stroke-width:0.264583"
       d="m 26.096167,152.57952 c -1.26187,-0.70591 -2.24895,-2.45636 -2.24895,-3.98818 0,-0.57048 0.26096,-2.51766 0.57991,-4.32706 0.56316,-3.19482 0.56612,-3.31543 0.10275,-4.17585 -0.78376,-1.45536 0.12923,-2.06107 1.15022,-0.7631 0.67367,0.85644 0.72084,2.5883 0.15154,5.56344 -0.21826,1.14059 -0.39685,2.76757 -0.39688,3.61551 -4e-5,1.3653 0.0921,1.63388 0.80558,2.34732 0.44309,0.4431 0.85686,0.75438 0.91949,0.69175 0.0626,-0.0626 -0.0101,-0.8808 -0.16153,-1.81816 -0.53522,-3.31202 0.23194,-6.35291 2.08749,-8.27453 1.20434,-1.24722 1.71278,-1.51797 5.28543,-2.8145 1.5606,-0.56635 3.34175,-1.23393 3.95811,-1.48352 1.11618,-0.45198 1.12469,-0.451 2.13096,0.24634 0.55566,0.38508 1.4124,1.11501 1.90386,1.62207 l 0.89358,0.92193 -1.27571,3.21058 c -1.26748,3.18985 -1.27474,3.22564 -1.12457,5.54358 0.16727,2.58173 0.47628,3.4248 1.25533,3.4248 0.34346,0 0.51985,0.17955 0.51985,0.52917 0,0.45037 -0.17639,0.52917 -1.18452,0.52917 -1.45605,0 -1.8138,-0.45923 -2.26729,-2.91042 -0.39171,-2.11731 -0.85378,-2.91042 -1.69565,-2.91042 -0.40687,0 -0.84274,-0.28846 -1.20538,-0.79774 -1.68224,-2.36249 -4.92853,-2.00509 -6.11318,0.67303 -0.5975,1.35073 -0.62099,4.36424 -0.0355,4.55753 0.23828,0.0787 0.33072,-0.30611 0.33072,-1.37656 0,-2.54477 1.238,-4.37917 2.95541,-4.37917 1.79087,0 2.86543,1.492 2.86543,3.97859 0,1.56106 0.0306,1.63517 0.79375,1.92323 0.47262,0.17839 0.79375,0.49022 0.79375,0.77077 0,0.43645 -0.39464,0.47084 -5.35781,0.4668 -5.05147,-0.004 -5.41833,-0.0382 -6.41615,-0.5964 z m 42.46392,-1.23395 c -0.36475,-0.11095 -1.05809,-0.40595 -1.54076,-0.65555 -0.81693,-0.42245 -0.85207,-0.4938 -0.50834,-1.0323 0.20309,-0.31817 0.45263,-0.72029 0.55454,-0.89361 0.13753,-0.23389 0.4736,-0.18424 1.3038,0.19263 2.05196,0.93149 3.62679,0.61578 4.13008,-0.82796 0.27563,-0.79067 0.26152,-0.8201 -0.3029,-0.63134 -1.45626,0.48702 -3.29349,0.44102 -4.37254,-0.10947 -1.5653,-0.79855 -2.26693,-1.93219 -2.38516,-3.85373 -0.0825,-1.34114 0.001,-1.74405 0.52012,-2.50047 0.99957,-1.45729 1.88646,-1.96139 3.6789,-2.09104 1.06486,-0.077 1.84437,0.007 2.2958,0.24744 0.53679,0.28592 0.70735,0.29307 0.79456,0.0333 0.0665,-0.1979 0.58037,-0.33073 1.27962,-0.33073 h 1.16857 v 4.6387 c 0,4.96857 -0.17335,5.85138 -1.35496,6.90017 -1.1727,1.04087 -3.50953,1.44679 -5.26133,0.91392 z m 3.55007,-6.38768 c 1.66737,-1.98156 -0.0952,-4.60702 -2.62232,-3.90599 -1.77096,0.49128 -2.28383,2.83308 -0.91931,4.19761 0.36228,0.36227 0.88022,0.52243 1.68954,0.52243 0.97844,0 1.27783,-0.13159 1.85209,-0.81405 z m 58.954493,0.0865 0.0711,-6.01927 1.25677,-0.0806 c 1.0032,-0.0644 1.25677,0.004 1.25677,0.33752 0,0.3778 0.0811,0.37625 0.83965,-0.016 1.20481,-0.62303 3.1616,-0.55973 4.29191,0.13883 1.45163,0.89716 2.11141,2.19139 2.11141,4.14175 0,2.91546 -1.73603,4.66775 -4.62442,4.66775 -0.71205,0 -1.51234,-0.19085 -1.9198,-0.45783 l -0.69875,-0.45784 v 1.88252 1.88251 h -1.32788 -1.32789 z m 6.52774,0.52917 c 1.16875,-0.9627 1.14732,-3.32532 -0.0377,-4.15534 -0.74694,-0.52317 -2.29838,-0.52524 -3.04248,-0.004 -0.84133,0.58929 -1.19462,2.09748 -0.74398,3.17603 0.19836,0.47474 0.58017,0.99077 0.84847,1.14673 0.75558,0.43921 2.35044,0.35164 2.97569,-0.16337 z m -47.070173,2.38746 -0.92605,-0.46924 -0.0743,-3.24114 -0.0743,-3.24115 h -0.65331 c -0.58389,0 -0.65331,-0.11051 -0.65331,-1.03993 0,-0.87701 0.0933,-1.05318 0.59531,-1.12448 0.50802,-0.0722 0.60713,-0.26883 0.67595,-1.34132 l 0.0806,-1.25677 h 1.17613 1.17613 v 1.32292 1.32292 h 0.92604 c 0.904,0 0.92604,0.0252 0.92604,1.05833 0,1.03527 -0.0204,1.05833 -0.93597,1.05833 h -0.93597 l 0.0761,2.4474 0.0761,2.44739 0.8724,0.25667 c 0.79748,0.23463 0.86564,0.33687 0.79375,1.19063 -0.0746,0.88599 -0.133,0.93767 -1.13698,1.00632 -0.62242,0.0426 -1.43976,-0.12091 -1.98438,-0.39688 z m 8.07547,0.14675 c -2.02087,-0.453 -3.31297,-2.24774 -3.31297,-4.60172 0,-2.53902 1.26525,-4.15613 3.59191,-4.5908 1.244343,-0.23247 2.861423,0.0318 3.161023,0.51654 0.24209,0.39171 0.6554,0.30211 0.6554,-0.14209 0,-0.29398 0.30868,-0.39687 1.19063,-0.39687 h 1.19062 v 4.6302 4.63021 h -1.19062 c -0.88195,0 -1.19063,-0.10289 -1.19063,-0.39687 0,-0.4899 -0.12618,-0.49458 -0.8692,-0.0322 -0.83218,0.51781 -2.005283,0.65731 -3.226163,0.38364 z m 3.059953,-2.41034 c 0.60368,-0.46348 1.03541,-1.37014 1.03541,-2.1744 0,-1.5397 -0.96346,-2.49671 -2.51354,-2.49671 -1.550083,0 -2.513543,0.95701 -2.513543,2.49671 0,1.53971 0.96346,2.49672 2.513543,2.49672 0.58208,0 1.24724,-0.14504 1.47813,-0.32232 z m 9.0054,2.44112 c -2.49145,-0.54879 -3.90261,-3.03133 -3.3618,-5.91411 0.20579,-1.09695 1.21996,-2.39124 2.31909,-2.95962 1.07794,-0.55742 3.18555,-0.56778 4.02194,-0.0198 0.37061,0.24284 0.73755,0.44152 0.81543,0.44152 0.0779,0 0.1416,-0.9525 0.1416,-2.11667 v -2.11667 h 1.19063 1.19062 v 6.35 6.35 h -1.19062 c -0.91963,0 -1.19063,-0.0973 -1.19063,-0.4273 0,-0.38092 -0.0646,-0.38547 -0.59531,-0.042 -0.7788,0.50411 -2.22358,0.70069 -3.34095,0.45457 z m 2.73378,-2.26633 c 0.55696,-0.21372 1.20248,-1.47482 1.20248,-2.34919 0,-0.87436 -0.64552,-2.13546 -1.20248,-2.34918 -0.23556,-0.0904 -0.88422,-0.16436 -1.44147,-0.16436 -0.80655,0 -1.15287,0.16602 -1.69815,0.81405 -1.41316,1.67945 -0.39195,4.21304 1.69815,4.21304 0.55725,0 1.20591,-0.074 1.44147,-0.16436 z m 10.06602,2.41497 c -0.14552,-0.0482 -0.58982,-0.15933 -0.98733,-0.24692 -0.39751,-0.0876 -1.15939,-0.54263 -1.69306,-1.0112 -3.42858,-3.01033 -1.2881,-8.13941 3.39486,-8.13489 3.89668,0.004 6.15679,4.25972 3.92589,7.39273 -0.85241,1.1971 -3.55211,2.36084 -4.64036,2.00028 z m 1.42377,-2.2793 c 1.81977,-0.63437 2.17119,-3.44029 0.58354,-4.65925 -0.72462,-0.55635 -2.29785,-0.40523 -3.11703,0.2994 -1.42806,1.22837 -0.73284,4.11571 1.07646,4.4707 0.30934,0.0607 0.57443,0.12657 0.5891,0.14639 0.0147,0.0198 0.40523,-0.0959 0.86793,-0.25724 z m 20.01353,1.99594 c -0.43325,-0.22591 -0.87791,-0.5526 -0.98814,-0.72598 -0.11023,-0.17338 -0.20225,-1.65468 -0.20448,-3.29179 -0.004,-2.79883 -0.0357,-2.97657 -0.53322,-2.97657 -0.43832,0 -0.52916,-0.17639 -0.52916,-1.02747 0,-0.80496 0.1146,-1.05744 0.52916,-1.16586 0.43229,-0.11304 0.52917,-0.36089 0.52917,-1.35377 v -1.2154 h 1.17613 1.17613 l 0.0806,1.25677 c 0.0773,1.20505 0.11603,1.26019 0.94054,1.33968 0.81047,0.0781 0.85989,0.14278 0.85989,1.12448 0,1.01398 -0.0245,1.04157 -0.92604,1.04157 h -0.92604 v 2.23006 c 0,2.36908 0.30352,3.06161 1.34182,3.06161 0.41892,0 0.51026,0.18945 0.51026,1.05833 v 1.05834 l -1.12448,-0.002 c -0.61846,-9e-4 -1.47895,-0.18647 -1.91218,-0.41237 z m 13.36508,0.0992 c -2.18173,-0.61618 -3.52484,-2.36137 -3.52484,-4.58004 0,-2.65385 2.05127,-4.6302 4.80573,-4.6302 3.59821,0 5.99514,3.26661 4.68424,6.38383 -0.3906,0.92883 -1.49221,2.09483 -2.40292,2.5434 -0.86122,0.42418 -2.57911,0.56067 -3.56221,0.28301 z m 2.97362,-2.53 c 1.70327,-1.88209 0.6766,-4.56358 -1.74727,-4.56358 -1.00973,0 -2.16005,0.94307 -2.3477,1.92472 -0.17649,0.92321 0.27039,2.24531 0.91046,2.69364 0.80461,0.56357 2.6537,0.53176 3.18451,-0.0548 z m 18.61814,2.56521 c -1.02187,-0.25345 -2.55258,-1.03309 -2.55011,-1.29885 7.9e-4,-0.0778 0.27531,-0.4838 0.61019,-0.9023 0.59924,-0.74887 0.62205,-0.7541 1.44075,-0.33073 1.01363,0.52416 2.80043,0.56224 3.21028,0.0684 0.42425,-0.5112 -0.0573,-0.8339 -1.78914,-1.19897 -2.00002,-0.4216 -2.90542,-1.02647 -3.248,-2.16989 -0.37887,-1.26455 0.11051,-2.32409 1.36241,-2.94969 1.28727,-0.64328 3.51336,-0.60286 4.94414,0.0898 l 1.14277,0.55321 -0.56526,0.79383 c -0.46715,0.65605 -0.68543,0.76261 -1.25767,0.614 -1.74182,-0.45237 -2.93462,-0.45844 -3.10449,-0.0158 -0.2305,0.6007 -0.12415,0.66339 1.91406,1.12831 2.84546,0.64905 3.89517,2.13346 2.96005,4.18584 -0.58657,1.28738 -2.9563,1.9571 -5.06998,1.43285 z M 55.773607,147.9768 c -0.097,-0.097 -0.17639,-2.95451 -0.17639,-6.35 v -6.17361 h 1.32291 1.32292 v 6.35 6.35 h -1.14653 c -0.63059,0 -1.2259,-0.0794 -1.32291,-0.17639 z m 4.96768,-0.16496 c -0.072,-0.18774 -0.0981,-2.24157 -0.0578,-4.56406 l 0.0731,-4.22271 1.25677,-0.0806 1.25677,-0.0806 v 4.64471 4.6447 h -1.19893 c -0.73496,0 -1.24962,-0.13209 -1.32992,-0.34135 z m 17.08093,-6.00865 v -6.35 h 1.19062 1.19063 v 2.10098 2.10098 l 0.7276,-0.37956 c 0.40018,-0.20875 1.34352,-0.38029 2.09632,-0.38118 1.16294,-0.001 1.48564,0.1153 2.14655,0.77622 0.96748,0.96747 1.11494,1.69325 1.11494,5.48742 v 3.02414 l -1.25677,-0.0806 -1.25677,-0.0806 -0.13229,-3.22907 c -0.0728,-1.77599 -0.25135,-3.34515 -0.39688,-3.48701 -0.14552,-0.14186 -0.58601,-0.33729 -0.97887,-0.43429 -0.55669,-0.13744 -0.86317,-0.0275 -1.38906,0.49842 -0.64538,0.64538 -0.67477,0.80783 -0.67477,3.72951 v 3.05473 h -1.19063 -1.19062 z m 72.231253,1.71979 v -4.6302 h 1.19062 1.19063 v 4.6302 4.63021 h -1.19063 -1.19062 z m 16.66875,0 v -4.6302 h 1.19062 c 0.89086,0 1.19063,0.10163 1.19063,0.40367 0,0.36183 0.0809,0.36183 0.78061,0 1.03578,-0.53562 3.168,-0.52063 3.95097,0.0278 1.06687,0.74727 1.35384,1.91587 1.35384,5.51317 v 3.31579 h -1.16847 -1.16847 l -0.0883,-3.16628 c -0.0947,-3.3966 -0.24266,-3.78616 -1.56024,-4.10863 -0.46842,-0.11464 -0.87761,-0.005 -1.32292,0.35551 -0.60847,0.49217 -0.64969,0.70142 -0.73303,3.72045 l -0.0883,3.19895 h -1.16846 -1.16847 z M 44.461377,139.33431 c -0.37663,-0.17008 -1.091,-0.71692 -1.5875,-1.21519 -0.49649,-0.49828 -1.34863,-1.22907 -1.89365,-1.62399 l -0.99094,-0.71803 1.02433,-0.92542 c 0.78351,-0.70785 1.49771,-1.03701 3.03799,-1.40013 1.10753,-0.2611 2.07923,-0.40918 2.15934,-0.32907 0.0801,0.0801 0.005,0.45383 -0.16636,0.83048 -0.25326,0.55584 -0.23465,0.80289 0.0988,1.31181 0.22596,0.34485 0.48727,1.2291 0.58069,1.965 0.15667,1.23404 0.11461,1.38147 -0.54127,1.89738 -0.80234,0.63113 -0.78675,0.62925 -1.72143,0.20716 z m 16.58524,-1.84542 c -0.66296,-0.48476 -0.44473,-1.53459 0.41949,-2.01808 0.64778,-0.3624 0.75715,-0.35384 1.25677,0.0983 1.39634,1.26367 -0.15062,3.03534 -1.67626,1.91977 z m 89.324353,0.0281 c -0.57685,-0.57685 -0.37997,-1.68576 0.35908,-2.02249 1.36263,-0.62086 2.58476,0.89293 1.55348,1.92422 -0.49346,0.49346 -1.46733,0.5435 -1.91256,0.0983 z"
       id="path7390" /></g></svg>
